<svg xmlns="http://www.w3.org/2000/svg" xmlns:xlink="http://www.w3.org/1999/xlink" version="1.1" x="0px" y="0px" viewBox="0 0 1396.5 610.5" style="enable-background:new 0 0 1396.5 610.5;" xml:space="preserve">
<style xmlns="http://www.w3.org/2000/svg" type="text/css">
	.st0{fill:#D3D3D3;}
	.st1{opacity:0.5;fill:#f79e1b;}
	.st2{fill:#f79e1b;}
	.st3{fill:#FA968C;}
	.st4{fill:#0E538C;}
	.st5{fill:#0B4870;}
	.st6{fill:#FAB9AF;}
	.st7{fill:#F7F7F7;}
	.st8{fill:#E8948B;}
	.st9{fill:none;}
</style>
<g xmlns="http://www.w3.org/2000/svg" id="_x31_">
	<ellipse class="st0" cx="355.8" cy="527.9" rx="304" ry="29.4"/>
	<g>
		<path class="st1" d="M294.7,166.5c-2.1,2-5.5,1.9-7.5-0.2l-37-38.8c-2-2.1-1.9-5.5,0.2-7.5l31-29.6c2.1-2,5.5-1.9,7.5,0.2l37,38.8    c2,2.1,1.9,5.5-0.2,7.5L294.7,166.5z"/>
		<path class="st1" d="M613.9,127.5c3,3.9,2.2,9.4-1.6,12.4l-71.1,54.6c-3.9,3-9.4,2.2-12.4-1.6L485.2,136c-3-3.9-2.2-9.4,1.6-12.4    L557.9,69c3.9-3,9.4-2.2,12.4,1.6L613.9,127.5z"/>
		<ellipse transform="matrix(0.9751 -0.2218 0.2218 0.9751 -7.3342 95.428)" class="st2" cx="421.2" cy="80.4" rx="30" ry="30"/>
		
			<ellipse transform="matrix(0.7231 -0.6908 0.6908 0.7231 -154.4331 202.0047)" class="st2" cx="174.7" cy="293.6" rx="30" ry="30"/>
		<g>
			<path class="st2" d="M617,283.8c-14.3,3.3-28.6-5.7-31.9-20.1c-3.3-14.3,5.7-28.6,20.1-31.9c14.3-3.3,28.6,5.7,31.9,20.1     C640.3,266.2,631.3,280.5,617,283.8z M605.4,232.8c-13.8,3.1-22.5,16.9-19.3,30.7c3.1,13.8,16.9,22.5,30.7,19.3     c13.8-3.1,22.5-16.9,19.3-30.7S619.2,229.6,605.4,232.8z"/>
		</g>
		<g>
			<path class="st2" d="M109.6,193.1c-16.1-16.8-15.5-43.6,1.4-59.7s43.6-15.5,59.7,1.4s15.5,43.6-1.4,59.7S125.6,209.9,109.6,193.1     z M169.9,135.4c-15.7-16.4-41.9-17-58.3-1.3c-16.4,15.7-17,41.9-1.3,58.3c15.7,16.4,41.9,17,58.3,1.3     C185,178,185.6,151.8,169.9,135.4z"/>
		</g>
	</g>
	<g id="woman">
		<path class="st3" d="M497.4,471.8c0,0,6.3,18.4,7.6,21.5c1.1,2.5,3.4,4.2,5.5,5.9c0.7,0.5,1.4,1.7,2,2.8c0.5,0.8,0.4,1.8,0.1,2.7    c-6.5,15.2-24.2,20.6-24.5,19.4c-0.6-2.1,2.2-6.2,5.9-8.2c3.8-1.9,6.1-5.9,6.5-10.1l0,0c0.3-3.4-0.3-6.7-1.7-9.8l-6.4-13.8    L497.4,471.8z"/>
		<path class="st3" d="M462.8,480.3l-2.4,19.6c-0.7,6,0.7,12.1,4.1,17.1c0,0,0,0,0,0c1.9,2.8,0.8,6.6-2.2,8.1    c-9.9,4.7-29.1,13.6-30,12.9c-4.9-3.4,6.4-10.9,14.6-18.4c5.5-5.1,5.7-26.1,4.7-42.2l9.7,1.4C461.9,479.1,462.5,479.6,462.8,480.3    z"/>
		<path class="st4" d="M449.4,524.9c-4.1,1.8-8.7,2.7-12.9,3.7c-0.5,0.1-0.9,0.3-1.3,0.7c-3.8,3.6-5.5,7-2.9,8.8    c0.9,0.6,16.5-0.8,27.2-11.6c0.4-0.5,1.7,5,1.7,5l5.3-1.2c0,0,0.6-9.4-0.5-11.1l-2.1-3.1C459.4,519.6,454.6,522.6,449.4,524.9z"/>
		<path class="st5" d="M473.2,273.3c11.3,2.5,20.6,17.1,18.1,32.4c-1.4,8.8-10.3,40.2-19.7,64.7c-3.6,9.4-2.6,20.5,3.4,28.9    c1,1.4,1.8,2.8,2.5,4.2c3.4,7.3,16,49.6,23.2,77.8c-0.8,3.6-2.9,8-5.5,9.4c-13.6-24.5-35.5-69-39.1-76.7c-2-4.3-4.2-9.2-5.7-13.9    c-8.9-13.6-4.8-85.9-2.5-100.1C450.3,284.8,461.9,270.9,473.2,273.3z"/>
		
			<ellipse transform="matrix(0.9979 -6.449700e-02 6.449700e-02 0.9979 -10.6798 31.2354)" class="st4" cx="478.4" cy="181" rx="17.5" ry="22.5"/>
		<path class="st4" d="M465.3,150.8c0,0-11.4,2.4-13.2,10.6c0,0-3.6-5.3-0.3-17.7C454.2,135.1,465.3,150.8,465.3,150.8z"/>
		<g>
			<path class="st6" d="M454.4,195c-0.4,8.8-1.1,17.6-2.3,26.4c-1.2,8.7-2.7,17.5-4.8,26c-2.1,8.6-4.6,17.1-8,25.3     c-1.7,4.1-3.6,8.1-5.9,12c-2.3,3.8-5,7.5-8.2,10.7c-0.5,0.5-1.3,0.5-1.8,0c-0.5-0.5-0.5-1.2-0.1-1.8l0,0     c5.4-6.5,8.9-14.4,11.7-22.5c2.7-8.1,4.6-16.5,6.1-25c1.4-8.5,2.5-17,3.1-25.6c0.7-8.6,1-17.2,1.1-25.8c0-2.5,2.1-4.5,4.6-4.5     c2.5,0,4.5,2.1,4.5,4.6C454.4,194.9,454.4,195,454.4,195z"/>
		</g>
		<path class="st6" d="M445.1,244.8c-3.1-12.1,3.5-29.3,4.8-37.4c0.8-5.2-1.9-17-1.9-17l34.1,2.5c5.7,0.4,10,5.2,9.7,10.9    c-0.4,9.9-6.6,32-10.1,43.6L445.1,244.8z"/>
		<path class="st5" d="M452.1,481.6c-0.6-0.3-0.9-0.9-1-1.5c-1.8-25.1-3.4-57.1-3.5-63.3c0-0.7,0-1.4,0-2.1    c-8.3-29.1-15.4-92.6-17.1-103.7c-2.2-14.6,5-32,16.3-33.7c11.3-1.7,24.8,8.9,29.8,21.9c3.3,8.6-1.3,56.7-8.1,91.8    c-1.4,7.4-1,15,0.8,22.3c1.3,5.1,2,10.3,2,14.4c0.1,6.1-4.2,31.2-8.5,52.8c-0.1,0.6-0.6,1.2-1.2,1.4    C458.7,483.1,455.3,483.2,452.1,481.6z"/>
		<path class="st2" d="M492.1,290.1l-7.5-27.3c-1.4-5.1-1.5-10.4-0.4-15.6c2.6-12,7.3-34.5,7.7-44.2c0.2-5.2-3.7-9.6-8.9-10    l-5.1-0.4c-2.3,4.3-6.6,7.5-12.9,7c-6.3-0.5-10.2-4.2-11.8-8.8l-4.7-0.3c4.3,11.4,1.4,25.9-8.1,33.7c1.2,6,2.2,11.9,2.9,16.8    c0.9,6.5-0.2,13.2-3.2,19.1c-5.1,10.1-9.8,26.7-9.3,33.4C429.4,306.8,498.1,295.4,492.1,290.1z"/>
		<g>
			<polygon class="st6" points="459.9,193.7 475.5,193.2 471.9,175.9 461.8,176.4    "/>
		</g>
		<path class="st3" d="M461.8,176.4l10.1-0.5l1.1,5.4c-2.4,2.4-5.7,7.6-9.3,7.3c-1.2-0.1-2.2-0.5-3.1-1.2L461.8,176.4z"/>
		<path class="st6" d="M454.1,181.6c3.2,1.2,7.2,0.9,13.5-1.5c3.6-1.4,7.2-4.8,8.2-7.6l5.8-15.5l-23.9-8.9c0,0-4.9,7.6-6.2,16.4    C450.6,171.1,451.6,180.6,454.1,181.6z"/>
		<path class="st4" d="M483.9,159.9c1.8-4.9-0.7-10.3-5.5-12.1l-8.1-3c-2.3-0.9-4.3-2.3-5.9-4.1c-2.2-2.7-6-3.5-9-1.6    c-3.2,2.1-5.5,5.5-1.5,11.1c2,2.7,6.6,2.2,8.9,4.1c0.2,0.1,0.3,0.1,0.5,0.1l7.1,2.7c2.5,0.9,3.6,3.7,2.8,6.2    c-0.5,1.6,0.3,3.3,1.9,3.9l0.3,0.1l2.5-3.2l2,6.8L483.9,159.9z"/>
		<path class="st6" d="M397.4,268c0,0,8.8-1.7,10.2,0.9c1.4,2.5,1.9,4.5-1.7,6.7c-3.6,2.2-9.6,3.5-13.3,3.5c-3.7,0-10-2.5-10.5-3.2    c-1.8-2.6,7.4-5.3,10.7-5.1c3.3,0.1,4.6,3.3,4.3,1.7c-0.4-1.6-6.7-1.4-7.8-3.1C388.2,267.5,397.4,268,397.4,268z"/>
		<path class="st4" d="M459.6,148.4c-0.5,3.8-2.4,5.3,7.1,15.2c9.6,9.9,14.1,8.9,15.5,16.2c0,0,2.1-10.5-3.1-16.3    c-5.2-5.8-15.5-12.2-16.1-21.4C463.1,142.2,460,145.8,459.6,148.4z"/>
		<g>
			<path class="st6" d="M491.3,198l0,0.6l0,0.5c0,0.4-0.1,0.7-0.1,1.1c-0.1,0.7-0.2,1.4-0.2,2.1c-0.2,1.4-0.4,2.7-0.7,4     c-0.6,2.7-1.3,5.3-2.1,7.8c-1.7,5.1-4,10-6.7,14.6c-2.8,4.6-6,8.9-9.6,12.8c-3.6,3.9-7.6,7.5-11.8,10.6     c-8.4,6.3-17.9,11.2-27.6,14.7c-1.2,0.5-2.4,0.9-3.7,1.3l-3.7,1.2c-2.5,0.7-5,1.4-7.5,2l-7.6,1.6l-7.6,1.2     c-0.6,0.1-1.2-0.3-1.3-0.9c-0.1-0.6,0.3-1.2,0.9-1.3l0,0c9.9-2.3,19.6-5.2,28.8-9.2l3.4-1.5c1.2-0.5,2.2-1.1,3.4-1.7     c1.1-0.6,2.2-1.1,3.3-1.7l3.2-1.9c4.2-2.6,8.4-5.4,12.1-8.6c3.8-3.2,7.3-6.6,10.5-10.3c3.1-3.7,5.9-7.8,8.3-12     c2.4-4.2,4.3-8.7,5.7-13.3c0.7-2.3,1.4-4.6,1.8-7c0.2-1.2,0.4-2.3,0.6-3.5c0.1-0.6,0.2-1.2,0.2-1.7c0-0.3,0.1-0.6,0.1-0.8l0-0.7     l0-0.3c0.1-2.2,2-3.9,4.2-3.8C489.7,194,491.4,195.9,491.3,198z"/>
		</g>
		<path class="st4" d="M461.6,149.9c0,0-4.9,11.8-17.5,13.6c0,0,8-7.3,9.9-13.3C455.9,144.2,463.9,146.1,461.6,149.9z"/>
		<path class="st6" d="M421.9,292.1c0,0,4.7-6.3,7.3-4.5c2.6,1.8,4.2,3.5,3.2,7.5c-1,4.1-4.1,8.5-6.5,10.5c-2.4,2-8.3,2.8-9,2.3    c-2.9-1.7,2-4.6,4.3-6.2c2.3-1.6,4.6-3.7,3.3-5.1c-1.3-1.4-5.3,2.1-7.1,1C415.5,296.5,421.9,292.1,421.9,292.1z"/>
		<path class="st4" d="M500.5,512.3c-3.3,2.9-7.2,5.2-10.8,7.3c-0.4,0.2-0.8,0.6-1,1c-2.4,4.5-3.1,8.3-0.2,9.2c1,0.3,15-5.6,21.7-19    c0.3-0.6,3,4.3,3,4.3l4.6-2.7c0,0-2.1-9.2-3.7-10.4l-2.8-2.3C508.2,504.2,504.6,508.5,500.5,512.3z"/>
		<path class="st6" d="M480.5,171c-2,2.6-4.8,3.7-6.3,2.5c-1.5-1.2-0.6-5.8,1.4-8.4c2-2.6,4.3-2.1,5.8-0.9    C482.8,165.4,482.4,168.4,480.5,171z"/>
	</g>
	<g id="man">
		<path class="st7" d="M238.5,490.2l-2,16.2c-0.1,0.7-0.3,1.4-0.6,2.1l-2.4,5.5c-1.6,3.5,0.7,7.5,4.5,7.9c0,0,7,1.2,14.3,2.3    c7.4,1.1,15.9-2.4,15.6-4.2c-0.7-4.1-4-0.2-11.1-3.4c-2.4-1.1-4.9-2.2-7.1-3.4c-6.3-3.4-3.4-15.2-1-22c0.8-2.4-0.9-5-3.5-5.1    l-1.7-0.1C240.9,486,238.8,487.8,238.5,490.2z"/>
		<path class="st4" d="M232,515.6l32.7,2.4c0,0,6.9,5.1,5.2,8.7c-1.6,3.6-37.5-3.6-37.5-3.6S227.4,518.9,232,515.6z"/>
		<path class="st4" d="M235.4,305.8l51.9-0.8c0,0,2.3,40.1-16,111.2c-8.6,33.3-21,96.9-21,96.9c-3.3,1.2-15.5,1.4-18.7,0.3    c0,0,5.1-28.5,6.8-59.2c1.6-29.4,3.7-60.8,2.7-71.2C238.9,361.6,235.4,305.8,235.4,305.8z"/>
		<path class="st6" d="M354.2,296.7c-2.2-1.5-4.3-3.2-5.2-3.7c-0.4-0.2-1.7-0.4-2.1-0.5c-1.1-0.2-2.8-0.4-3.5-1.2l-3-3.2    c-1.4-1.6-3.4-2-5.3-0.3l0,0c-2.1,1.8-1.7,4.1,0.1,5.6l2,2.3c1.4,1.2,2,3,2.7,4.8c1.4,3.5,5,6,8.1,7.7c2,1,5.2-0.1,9.4-1.8    c2.1-0.8,5.1-2.7,2.7-3.4c-2-0.6-8.6,1.6-10.9-3.9c-0.1-0.3-0.4-1,0-1.3c0.9-0.9,2.6,0.8,3.9,1.2c1.7,0.6,3.1,0.2,3.6-0.4    C357.2,297.8,355.8,297.7,354.2,296.7z"/>
		<path class="st4" d="M295.7,187.4c0,0-19.2,52.4-2.1,71.6c10.3,11.6,36.2,30.7,42.2,35.1c0.8,0.6,1.9,0.5,2.8-0.2    c0.6-0.4,1.2-0.9,1.8-1.4c0.6-0.5,1.3-1.2,1.9-1.9c1-1.2,1.1-2.7,0.2-3.7c-6.5-7.1-32.2-35.1-34.9-42.8    c-3.1-8.8,8.4-63.9-1.2-64.7C298,178.7,298.4,175.3,295.7,187.4z"/>
		<path class="st7" d="M294.5,489.8l-1.5,13.6c-0.3,2.8-1,5.5-2,8.1l-1.6,4.1c-1.4,3.3,0.9,7,4.4,7.4c9.3,1,25.1,2.8,29.2,3.2    c0.7,0.1,1.4-0.3,1.5-1c0.8-3.9-10.4-7.9-18.7-12.2c-6.3-3.3-4.6-15.1-3.1-21.9c0.6-2.6-1.3-5-4-5.1l0,0    C296.6,486,294.8,487.6,294.5,489.8z"/>
		<path class="st4" d="M270.5,303.1l51.5-6.6c0,0,6.7,40.5-3.7,114.8c-4.9,34.8-12.3,101.3-12.3,101.3c-3.1,1.6-13.3,2.1-16.6,1.3    c0,0,2-29.1,0.3-60.5c-1.7-30.1-3-62.2-5.1-72.7C280.1,359.5,270.5,303.1,270.5,303.1z"/>
		<path class="st5" d="M323.5,302.7c-4.5,2.1-14.4,5.3-31.9,5c-23.4-0.4-47.5-0.3-56.2-2c-2.3-0.5-0.6-6.7-0.1-9.1l15.8-119.1    l11.5-4.5l11.1,1.6l16.1,82.9l9.9-79l6.6,1l19.7,118.5C326.3,299.9,325.3,301.8,323.5,302.7z"/>
		<polygon class="st0" points="299.7,178.4 289.8,257.4 273.8,174.5   "/>
		<g>
			<path class="st6" d="M294.1,124.7c-10.4-0.7-14.7,6.5-15.8,20.1c-0.4,5.1,1.6,10.3,3.2,13.7c1.2,2.5,1.4,5.4,0.5,8l-2.8,7.6     c-2,7.1,1.1,11.2,6.1,13c2.4,0.9,5.5,0.5,7.7-0.8c2.7-1.5,3.1-5.1,2.8-8.1l-0.4-2.2c-0.6-3,1.3-6.1,4.4-6.6     c8.1-1.2,9.8-9.5,12.8-22.3C315.6,133.7,304.5,125.4,294.1,124.7z"/>
			<path class="st4" d="M294.2,117.1c-7.2-0.5-19.4,2.8-18.5,13.3l0.9,7.4c0.3,3,2.7,5.3,5.6,5.8l0,0c0.2,1,1.1,1.8,2.1,1.9     c1.3,0.1,2.4-0.9,2.5-2.2l0,0c0.2-3.3,2.7-6,6-6.5c4-0.6,8.3-0.6,12.6,0.9c8,2.7,18.5-10.1,18.5-10.3c0,0-4.3,2.9-12.3-0.6     C303.7,123.3,307.5,117.5,294.2,117.1z"/>
			<path class="st6" d="M284,145.5c-0.2,3.2-1.5,5.7-4.6,5.5c-3.1-0.2-4.7-4.7-4.5-7.9c0.2-3.2,2.2-3.8,5.3-3.6     S284.2,142.3,284,145.5z"/>
		</g>
		<path class="st8" d="M281.2,159.1c0,0,7.6,10.8,17.3,9.5c0,0-2,0.9-2.5,2.5C295.9,171.1,286.8,170.3,281.2,159.1z"/>
		<path class="st4" d="M288.4,517.4l30.6,2.9c0,0,9.4,1.7,8,5.4c-1.4,3.7-37.6-0.8-37.6-0.8S284,521,288.4,517.4z"/>
		<g>
			<path class="st6" d="M397.1,269.9c-3.1-0.6-6.1-1.4-7.4-1.5c-0.5,0-1.9,0.3-2.4,0.3c-1.2,0.2-3.1,0.7-4.2,0.2l-4.8-2     c-2.3-1-4.6-0.6-5.6,1.7l0,0c-1.1,2.5,0.6,4.6,3.2,5.4l3.4,1.4c2.1,0.6,3.7,2.1,5.4,3.6c3.4,2.9,8.4,3.9,12.6,4.3     c2.6,0.3,5.2-2,8.6-5.3c1.6-1.6,3.7-4.6,0.8-4.3c-2.4,0.2-7.8,4.8-13.2,0.4c-0.3-0.2-0.9-0.8-0.8-1.2c0.5-1.2,3.1-0.3,4.6-0.3     c2.1,0,3.3-0.9,3.5-1.8C400.8,269.8,399.3,270.3,397.1,269.9z"/>
			<path class="st4" d="M250.9,186.2c0,0,34.2,58.9,62.3,70.9c17,7.2,54.1,15.8,62.7,17.7c1.1,0.2,2.2-0.2,2.8-1.2     c0.4-0.6,0.7-1.4,1-2.1c0.3-0.7,0.6-1.7,0.8-2.6c0.4-1.5-0.4-3.1-1.8-3.6c-10.6-4.3-52.4-21.5-59.5-27.8     c-8.2-7.3-40.2-57.9-50-62.8C259.3,169.7,246.9,173.6,250.9,186.2z"/>
		</g>
		<line class="st9" x1="299.8" y1="177.4" x2="299.7" y2="178.4"/>
		<line class="st9" x1="273.8" y1="174.5" x2="272.6" y2="168.7"/>
	</g>
</g>
<g xmlns="http://www.w3.org/2000/svg" id="_x32_">
	<g>
		<circle class="st1" cx="1082.2" cy="321.7" r="156.6"/>
		<g>
			<path class="st1" d="M1008.3,299.5c-1.8,1.7-4.5,1.6-6.2-0.1l-30.7-32.2c-1.7-1.8-1.6-4.5,0.1-6.2l25.7-24.6     c1.8-1.7,4.5-1.6,6.2,0.1l30.7,32.2c1.7,1.8,1.6,4.5-0.1,6.2L1008.3,299.5z"/>
			<path class="st1" d="M1273.2,267.2c2.5,3.2,1.9,7.8-1.3,10.3l-59,45.3c-3.2,2.5-7.8,1.9-10.3-1.3l-36.2-47.2     c-2.5-3.2-1.9-7.8,1.3-10.3l59-45.3c3.2-2.5,7.8-1.9,10.3,1.3L1273.2,267.2z"/>
			
				<ellipse transform="matrix(0.9751 -0.2218 0.2218 0.9751 -22.8552 252.6236)" class="st2" cx="1113.2" cy="228.1" rx="24.9" ry="24.9"/>
			
				<ellipse transform="matrix(0.7231 -0.6908 0.6908 0.7231 -28.1867 739.8343)" class="st2" cx="908.7" cy="405.1" rx="24.9" ry="24.9"/>
			<g>
				<path class="st2" d="M1275.8,396.9c-11.9,2.7-23.8-4.8-26.5-16.7c-2.7-11.9,4.8-23.8,16.7-26.5c11.9-2.7,23.8,4.8,26.5,16.7      C1295.1,382.3,1287.7,394.2,1275.8,396.9z M1266.1,354.6c-11.4,2.6-18.6,14-16,25.5s14,18.6,25.5,16c11.4-2.6,18.6-14,16-25.5      S1277.6,352,1266.1,354.6z"/>
			</g>
			<g>
				<path class="st2" d="M854.6,321.6c-13.4-14-12.8-36.2,1.1-49.6c14-13.4,36.2-12.8,49.6,1.1c13.4,14,12.8,36.2-1.1,49.6      C890.2,336.1,867.9,335.6,854.6,321.6z M904.7,273.7c-13-13.6-34.7-14.1-48.4-1.1c-13.6,13-14.1,34.7-1.1,48.4      c13,13.6,34.7,14.1,48.4,1.1C917.2,309.1,917.7,287.4,904.7,273.7z"/>
			</g>
		</g>
		<g>
			<path class="st6" d="M1276.7,237.2c-20.6-9.2-40.1,34.2-81.3,57.8c-17.8,10.2-46.7,26.6-84.5,21l2.5,12.1l-8.3,21.2     c5.6,4,59.8,21.5,132.4-26.8c50.1-33.3,54.4-46.6,54.7-55.6C1292.5,255.2,1286.1,241.4,1276.7,237.2z"/>
			<path class="st3" d="M1147.3,331.5c0.6-8.2-5.8-13.6-11-18c-5.7-4.9-18.1-0.4-29.9-11.7c-2.6-2.5-4-6.1-5.9-5.2     c-1.7,0.7-2.7,4.1-3,6.4c-0.8,5.9,1.9,10.4,7.5,18.9c7.5,11.5,11.2,17.2,12.5,18.3c3.6,3.1,13.5,11.7,22.2,5.1     C1143.1,342.7,1146.9,337.3,1147.3,331.5z"/>
			<path class="st6" d="M1137.8,314.5c-6.8-4.7-14.1-3.9-27.3-2.6c-8.6,0.8-25.2,3.2-32.2,2.6c-6.3-0.6-18.7,10.1-19.3,11.1     c-3.3,6.6,5.7,20.2,16.8,31.6c5.1,5.3,32.9,19.3,55.8,4c1.9-1.3,16.4-11.2,17.6-25.1C1150.2,323.4,1139.3,315.5,1137.8,314.5z"/>
		</g>
		<g>
			<path class="st6" d="M1007.1,320.2c2.1-7.6,12.3-10.5,20.7-12.8c9.2-2.6,23.7,5.4,43.1-1.1c4.3-1.4,7.3-4.2,9.5-2.8     c1.9,1.2,2,4.6,1.6,6.8c-1,5.6-6.1,8.8-16.3,14.7c-13.8,8-20.6,12-22.8,12.6c-5.7,1.7-21.7,6.3-30.8-2.4     C1008.6,331.7,1005.5,325.6,1007.1,320.2z"/>
			<path class="st3" d="M1025.4,307.8c10.4-2.1,19.8,0.9,36.5,6.3c10.9,3.5,12.9,5.3,19.6,5.5c9.8,0.3,11.7-3.5,21.1-1.8     c8.4,1.5,14.3,5.8,16.7,7.6c2.6,2,4,3,4.3,4.1c2,7-17.4,21.1-35.8,28c-8.5,3.2-46.2,15.8-70.8-5.4c-2.1-1.8-17.5-15.4-14.1-28.4     C1006.1,311.9,1023.1,308.2,1025.4,307.8z"/>
			<g>
				<path class="st0" d="M889.2,253.2l77.4,31.5l63.1,16.3c0,0-1.3,21.8-1.8,29c-0.9,14.9-14.5,28.3-14.5,28.3s-44.9-7.3-59.3-11.2      c-25.4-6.7-98-33.9-98-33.9s-2.2-29.3,3-37.8C863.4,268.2,889.2,253.2,889.2,253.2z"/>
				<path class="st5" d="M876.4,235.3l77,37.4l62.9,18.9c0,0-1.7,26.9-2.3,35.9c-1.2,18.4-15,35.2-15,35.2s-44.8-8.2-59.2-12.7      c-25.3-7.8-97.6-40.1-97.6-40.1s-1.6-36.1,3.7-46.8C850.4,254.2,876.4,235.3,876.4,235.3z"/>
			</g>
		</g>
	</g>
</g>
</svg>