<?xml version="1.0" encoding="utf-8"?>
<!-- Generator: Adobe Illustrator 28.2.0, SVG Export Plug-In . SVG Version: 6.00 Build 0)  -->
<svg version="1.1" id="Layer_1" xmlns="http://www.w3.org/2000/svg" xmlns:xlink="http://www.w3.org/1999/xlink" x="0px" y="0px"
	 viewBox="0 0 841.89 595.28" style="enable-background:new 0 0 841.89 595.28;" xml:space="preserve">
<path d="M410.09,190.62l-19.15,191.17c-0.69,6.93-6.88,11.99-13.81,11.3l-1.15-0.12c-6.93-0.69-11.99-6.88-11.3-13.81l14.95-149.18
	c1.11-11.05-11.58-18.04-20.33-11.2l-33.49,26.2c-6.04,4.73-14.87,3.01-18.7-3.63v0c-3.33-5.77-1.6-13.14,3.95-16.82l70.29-46.61
	c2.43-1.61,5.33-2.33,8.23-2.04l9.22,0.92C405.72,177.51,410.78,183.69,410.09,190.62z"/>
<polygon points="535.31,396.34 536,396.36 535.31,396.36 "/>
<path d="M536.48,382.95c0.12,7.37-5.82,13.41-13.19,13.41H511l-0.69-0.02l-80.59-2.12l-11.81-0.31c-7.86-0.21-13.8-7.2-12.72-15
	l25.97-187.63c1-7.22,7.66-12.26,14.88-11.26l0.01,0c7.22,1,12.26,7.66,11.26,14.88l-21.34,154.23
	c-1.08,7.79,4.85,14.78,12.71,14.99l48.09,1.31c7.42,0.2,13.55-5.76,13.55-13.19v-13.43c0-6.46-4.69-11.98-11.07-13.02l-21.42-3.5
	c-7.19-1.17-12.07-7.95-10.89-15.14v0c1.17-7.19,7.96-12.07,15.15-10.89l28.23,4.61l14,2.28c6.3,1.03,10.96,6.42,11.07,12.8
	L536.48,382.95z"/>
</svg>
